<?xml version="1.0" encoding="utf-8"?>
<!-- Generator: Adobe Illustrator 21.0.0, SVG Export Plug-In . SVG Version: 6.00 Build 0)  -->
<svg version="1.1" id="Layer_1" xmlns="http://www.w3.org/2000/svg" xmlns:xlink="http://www.w3.org/1999/xlink" x="0px" y="0px"
	 viewBox="0 0 512 512" style="enable-background:new 0 0 512 512;" xml:space="preserve">
<style type="text/css">
	.st0{fill:#FBC749;}
	.st1{fill:#FFFFFF;}
	.st2{fill:#E85558;}
	.st3{fill:#75B4E2;}
	.st4{fill:#17171D;}
</style>
<g id="Media_Content_Types">
	<g>
		<path class="st0" d="M250.4,87h-93.5V198h93.5V87z M171.4,183.5v-82l69.9,41L171.4,183.5z"/>
		<polygon class="st1" points="300,259.1 316.7,259.1 308.4,242.4 		"/>
		<path class="st0" d="M285.3,264.8c0-0.9,0.2-1.7,0.6-2.5l16.9-33.7v-7.4H314v7.4l16.9,33.7c0.4,0.8,0.6,1.6,0.6,2.5v55.4h23.7
			V209.3h-93.5v110.9h23.7V264.8z"/>
		<polygon class="st2" points="182.7,121.2 182.7,163.9 219.1,142.5 		"/>
		<path class="st3" d="M355.1,87h-93.5v111h93.5V87z M344.3,187.3l-49.8-21.6h-22v-46.3h21.9l49.9-23.8V187.3z"/>
		<polygon class="st1" points="333,113.4 301.3,128.6 301.3,156.3 333,170.1 		"/>
		<rect x="283.8" y="130.7" class="st1" width="6.2" height="23.7"/>
		<polygon class="st2" points="320.2,320.2 320.2,270.4 296.6,270.4 296.6,320.2 302.7,320.2 302.7,282.2 314,282.2 314,320.2 		"/>
		<rect x="191.8" y="418.8" class="st3" width="128.4" height="6.2"/>
		<path class="st3" d="M250.4,209.3h-93.5v110.9h93.5V209.3z M244.2,289.4h-17.5v25.4l-25.4-25.4h-38.2v-63.6h81.1V289.4z"/>
		<path class="st1" d="M145.6,209.2L145.6,209.2l0-87.3H81.4c-6.5,0-11.8,5.3-11.8,11.8v186.4h76V209.2z"/>
		<rect x="244.2" y="383.8" class="st3" width="23.7" height="23.7"/>
		<path class="st3" d="M145.6,331.4h-76v29.3c0,6.5,5.3,11.8,11.8,11.8h349.2c6.5,0,11.8-5.3,11.8-11.8v-29.3h-76H145.6z M256,360.7
			c-4.8,0-8.7-3.9-8.7-8.7c0-4.8,3.9-8.7,8.7-8.7c4.8,0,8.7,3.9,8.7,8.7C264.7,356.8,260.8,360.7,256,360.7z"/>
		<path class="st1" d="M430.6,121.9h-64.2v198.3h76V133.7C442.4,127.2,437.1,121.9,430.6,121.9z"/>
		<path class="st1" d="M215.4,287.6v-9.5h17.5V237h-58.6v41.1h31.6L215.4,287.6z M215.4,250.4h11.3v11.3h-11.3V250.4z M191.8,261.7
			h-11.3v-11.3h11.3V261.7z M198,250.4h11.3v11.3H198V250.4z"/>
		<circle class="st4" cx="256" cy="352" r="8.7"/>
		<path class="st4" d="M430.6,110.6h-64.2V75.8H261.6h-116h0v34.9H81.4c-12.7,0-23.1,10.4-23.1,23.1v227c0,12.7,10.4,23.1,23.1,23.1
			h151.5v23.7h-52.4v28.7h151v-28.7h-52.4v-23.7h151.5c12.7,0,23.1-10.4,23.1-23.1v-227C453.7,121,443.3,110.6,430.6,110.6z
			 M261.6,87h93.5v111h-93.5V87z M261.6,209.3h93.5v110.9h-23.7v-55.4c0-0.9-0.2-1.7-0.6-2.5L314,228.5v-7.4h-11.3v7.4l-16.9,33.7
			c-0.4,0.8-0.6,1.6-0.6,2.5v55.4h-23.7V209.3z M302.7,282.2v38h-6.2v-49.8h23.7v49.8H314v-38H302.7z M300,259.1l8.3-16.7l8.3,16.7
			H300z M156.9,87h93.5V198h-93.5V87z M156.9,209.3h93.5v110.9h-93.5V209.3z M69.6,133.7c0-6.5,5.3-11.8,11.8-11.8h64.2v87.3h0
			v110.9h-76V133.7z M320.2,418.8v6.2H191.8v-6.2H320.2z M244.2,407.5v-23.7h23.7v23.7H244.2z M442.4,360.7
			c0,6.5-5.3,11.8-11.8,11.8H81.4c-6.5,0-11.8-5.3-11.8-11.8v-29.3h76h220.8h76V360.7z M442.4,320.2h-76V121.9h64.2
			c6.5,0,11.8,5.3,11.8,11.8V320.2z"/>
		<path class="st4" d="M171.4,183.5l69.9-41l-69.9-41V183.5z M182.7,121.2l36.4,21.3l-36.4,21.3V121.2z"/>
		<path class="st4" d="M272.5,119.4v46.3h22l49.8,21.6V95.6l-49.9,23.8H272.5z M290,154.4h-6.2v-23.7h6.2V154.4z M301.3,128.6
			l31.7-15.1v56.7l-31.7-13.8V128.6z"/>
		<path class="st4" d="M163.1,289.4h38.2l25.4,25.4v-25.4h17.5v-63.6h-81.1V289.4z M174.3,237h58.6v41.1h-17.5v9.5l-9.5-9.5h-31.6
			V237z"/>
		<rect x="180.5" y="250.4" class="st4" width="11.3" height="11.3"/>
		<rect x="198" y="250.4" class="st4" width="11.3" height="11.3"/>
		<rect x="215.4" y="250.4" class="st4" width="11.3" height="11.3"/>
	</g>
</g>
</svg>
